<svg width="179" height="46" viewBox="0 0 179 46" fill="none" xmlns="http://www.w3.org/2000/svg">
<path d="M16.3914 10.4118C19.1299 10.4118 21.3499 8.19278 21.3499 5.45543C21.3499 2.71808 19.1299 0.499023 16.3914 0.499023C13.6529 0.499023 11.433 2.71808 11.433 5.45543C11.433 8.19278 13.6529 10.4118 16.3914 10.4118Z" fill="#094063"/>
<path d="M38.3072 29.8179C40.4072 30.9396 41.2929 33.4864 40.3411 35.6677C39.768 36.8344 38.743 37.7157 37.5037 38.1073C36.3876 38.4558 35.1783 38.3497 34.1393 37.8129L22.5473 31.5353L24.4088 27.7979C25.6732 25.5956 24.9117 22.7874 22.7085 21.5235C22.659 21.4954 22.609 21.4678 22.5588 21.4412C22.543 21.4322 22.5271 21.4232 22.5112 21.4144L22.4635 21.3886L18.9019 19.3107L25.1191 7.83909C26.2523 5.66384 28.9364 4.81857 31.1125 5.95227C33.2887 7.08496 34.1343 9.76797 33.0001 11.9432L26.7151 23.5405L38.3072 29.8179Z" fill="#094063"/>
<path d="M18.861 29.5422C18.8647 29.5444 18.8685 29.5465 18.8722 29.5486L22.5442 31.5366L16.2642 43.1239C15.1311 45.2991 12.4469 46.1444 10.2708 45.0107C8.09466 43.878 7.24906 41.195 8.38322 39.0197L14.7323 27.3052L3.13022 21.0228C1.03022 19.9012 0.144539 17.3544 1.09635 15.1731C1.70351 14.0304 2.72144 13.1601 3.94477 12.7385C5.05989 12.3829 6.2722 12.4891 7.30917 13.0329L18.8992 19.3094L16.8493 23.0989C15.643 25.3884 16.4856 28.2216 18.7469 29.4805L18.861 29.5422Z" fill="#094063"/>
<path d="M171.367 26.4996C170.368 26.4996 169.437 26.331 168.575 25.9936C167.725 25.6563 166.988 25.1878 166.363 24.5881C165.739 23.9759 165.252 23.2637 164.902 22.4516C164.552 21.6395 164.377 20.7525 164.377 19.7905C164.377 18.8284 164.552 17.9414 164.902 17.1293C165.252 16.3172 165.739 15.6113 166.363 15.0116C166.988 14.3994 167.725 13.9246 168.575 13.5873C169.424 13.25 170.355 13.0813 171.367 13.0813C172.367 13.0813 173.285 13.25 174.122 13.5873C174.972 13.9121 175.709 14.3807 176.333 14.9928C176.971 15.5925 177.458 16.2984 177.795 17.1105C178.145 17.9226 178.32 18.8159 178.32 19.7905C178.32 20.765 178.145 21.6583 177.795 22.4704C177.458 23.2825 176.971 23.9946 176.333 24.6068C175.709 25.2065 174.972 25.675 174.122 26.0124C173.285 26.3372 172.367 26.4996 171.367 26.4996ZM171.367 24.8317C172.092 24.8317 172.76 24.7068 173.372 24.4569C173.997 24.207 174.534 23.8572 174.984 23.4074C175.446 22.9451 175.803 22.4079 176.052 21.7957C176.315 21.1835 176.446 20.5151 176.446 19.7905C176.446 19.0658 176.315 18.3974 176.052 17.7852C175.803 17.173 175.446 16.642 174.984 16.1922C174.534 15.73 173.997 15.3739 173.372 15.124C172.76 14.8742 172.092 14.7492 171.367 14.7492C170.63 14.7492 169.949 14.8742 169.324 15.124C168.712 15.3739 168.175 15.73 167.713 16.1922C167.251 16.642 166.888 17.173 166.626 17.7852C166.376 18.3974 166.251 19.0658 166.251 19.7905C166.251 20.5151 166.376 21.1835 166.626 21.7957C166.888 22.4079 167.251 22.9451 167.713 23.4074C168.175 23.8572 168.712 24.207 169.324 24.4569C169.949 24.7068 170.63 24.8317 171.367 24.8317Z" fill="#094063"/>
<path d="M147.471 26.3497V13.2312H149.008L154.893 23.145H154.068L159.878 13.2312H161.415L161.433 26.3497H159.634L159.615 16.061H160.046L154.874 24.7567H154.012L148.802 16.061H149.271V26.3497H147.471Z" fill="#094063"/>
<path d="M141.596 13.2312H143.47V26.3497H141.596V13.2312ZM134.062 26.3497H132.188V13.2312H134.062V26.3497ZM141.764 20.5026H133.875V18.8721H141.764V20.5026Z" fill="#094063"/>
<path d="M119.691 26.4622C118.629 26.4622 117.692 26.2436 116.879 25.8063C116.08 25.369 115.455 24.7693 115.005 24.0072C114.568 23.245 114.349 22.3705 114.349 21.3835C114.349 20.3965 114.562 19.5219 114.987 18.7598C115.424 17.9977 116.017 17.4042 116.767 16.9794C117.529 16.5421 118.385 16.3235 119.335 16.3235C120.297 16.3235 121.146 16.5359 121.883 16.9607C122.62 17.3855 123.195 17.9852 123.607 18.7598C124.032 19.5219 124.245 20.4152 124.245 21.4397C124.245 21.5147 124.238 21.6021 124.226 21.7021C124.226 21.802 124.22 21.8957 124.207 21.9832H115.755V20.6901H123.27L122.539 21.1398C122.552 20.5027 122.42 19.9342 122.146 19.4344C121.871 18.9347 121.49 18.5474 121.002 18.2725C120.528 17.9852 119.972 17.8415 119.335 17.8415C118.71 17.8415 118.154 17.9852 117.667 18.2725C117.179 18.5474 116.798 18.9409 116.523 19.4532C116.249 19.9529 116.111 20.5276 116.111 21.1773V21.4772C116.111 22.1393 116.261 22.7328 116.561 23.2575C116.873 23.7698 117.304 24.1696 117.854 24.4569C118.404 24.7443 119.035 24.888 119.747 24.888C120.334 24.888 120.865 24.788 121.34 24.5881C121.827 24.3882 122.252 24.0884 122.614 23.6886L123.607 24.8505C123.158 25.3752 122.595 25.775 121.921 26.0499C121.259 26.3248 120.515 26.4622 119.691 26.4622Z" fill="#094063"/>
<path d="M108.962 26.4622C107.95 26.4622 107.044 26.2436 106.245 25.8063C105.457 25.369 104.839 24.7693 104.389 24.0072C103.939 23.245 103.715 22.3705 103.715 21.3835C103.715 20.3965 103.939 19.5219 104.389 18.7598C104.839 17.9977 105.457 17.4042 106.245 16.9794C107.044 16.5421 107.95 16.3235 108.962 16.3235C109.862 16.3235 110.661 16.5046 111.361 16.867C112.073 17.2168 112.623 17.7415 113.01 18.4412L111.642 19.322C111.317 18.8347 110.917 18.4787 110.443 18.2538C109.98 18.0164 109.48 17.8977 108.943 17.8977C108.294 17.8977 107.713 18.0414 107.2 18.3287C106.688 18.6161 106.282 19.0221 105.982 19.5469C105.682 20.0591 105.532 20.6713 105.532 21.3835C105.532 22.0956 105.682 22.7141 105.982 23.2388C106.282 23.7635 106.688 24.1696 107.2 24.4569C107.713 24.7443 108.294 24.888 108.943 24.888C109.48 24.888 109.98 24.7755 110.443 24.5506C110.917 24.3133 111.317 23.9509 111.642 23.4637L113.01 24.3258C112.623 25.0129 112.073 25.5439 111.361 25.9187C110.661 26.281 109.862 26.4622 108.962 26.4622Z" fill="#094063"/>
<path d="M97.1054 16.3235C97.9175 16.3235 98.6297 16.4797 99.2419 16.792C99.8666 17.1043 100.354 17.5791 100.704 18.2163C101.053 18.8535 101.228 19.6593 101.228 20.6338V26.3497H99.4293V20.84C99.4293 19.878 99.1919 19.1533 98.7171 18.6661C98.2549 18.1788 97.5989 17.9352 96.7494 17.9352C96.1122 17.9352 95.5562 18.0601 95.0814 18.31C94.6067 18.5599 94.2381 18.9284 93.9757 19.4157C93.7259 19.903 93.6009 20.5089 93.6009 21.2335V26.3497H91.8018V16.4172H93.526V19.0971L93.2448 18.385C93.5697 17.7353 94.0694 17.2293 94.7441 16.867C95.4188 16.5046 96.2059 16.3235 97.1054 16.3235Z" fill="#094063"/>
<path d="M86.692 26.3497V24.2508L86.5983 23.8572V20.2778C86.5983 19.5156 86.3735 18.9284 85.9237 18.5161C85.4864 18.0914 84.8242 17.879 83.9372 17.879C83.35 17.879 82.7752 17.9789 82.213 18.1788C81.6508 18.3662 81.176 18.6223 80.7887 18.9472L80.0391 17.5979C80.5514 17.1856 81.1635 16.8732 81.8757 16.6608C82.6003 16.4359 83.3562 16.3235 84.1433 16.3235C85.5051 16.3235 86.5546 16.6546 87.2917 17.3167C88.0289 17.9789 88.3974 18.9909 88.3974 20.3527V26.3497H86.692ZM83.4312 26.4622C82.694 26.4622 82.0444 26.3373 81.4821 26.0874C80.9324 25.8375 80.5076 25.4939 80.2078 25.0566C79.9079 24.6069 79.758 24.1009 79.758 23.5386C79.758 23.0014 79.8829 22.5142 80.1328 22.0769C80.3952 21.6396 80.8137 21.2898 81.3884 21.0274C81.9756 20.765 82.7628 20.6338 83.7498 20.6338H86.8982V21.9269H83.8247C82.9252 21.9269 82.3192 22.0769 82.0069 22.3767C81.6945 22.6766 81.5384 23.0389 81.5384 23.4637C81.5384 23.9509 81.732 24.3445 82.1193 24.6443C82.5066 24.9317 83.0439 25.0754 83.731 25.0754C84.4057 25.0754 84.9929 24.9255 85.4926 24.6256C86.0049 24.3258 86.3735 23.8885 86.5983 23.3138L86.9544 24.5506C86.717 25.1379 86.2985 25.6064 85.6988 25.9562C85.0991 26.2935 84.3432 26.4622 83.4312 26.4622Z" fill="#094063"/>
<path d="M75.2172 26.3498V16.4172H77.0163V26.3498H75.2172ZM76.1168 14.5057C75.7669 14.5057 75.4733 14.3932 75.236 14.1683C75.0111 13.9434 74.8986 13.6686 74.8986 13.3437C74.8986 13.0064 75.0111 12.7253 75.236 12.5004C75.4733 12.2755 75.7669 12.1631 76.1168 12.1631C76.4666 12.1631 76.7539 12.2755 76.9788 12.5004C77.2162 12.7128 77.3349 12.9814 77.3349 13.3063C77.3349 13.6436 77.2225 13.931 76.9976 14.1683C76.7727 14.3932 76.4791 14.5057 76.1168 14.5057Z" fill="#094063"/>
<path d="M69.908 26.3497V12.4441H71.7071V26.3497H69.908Z" fill="#094063"/>
<path d="M62.7809 26.4622C61.7189 26.4622 60.7819 26.2436 59.9698 25.8063C59.1702 25.369 58.5455 24.7693 58.0957 24.0072C57.6585 23.245 57.4398 22.3705 57.4398 21.3835C57.4398 20.3965 57.6522 19.5219 58.077 18.7598C58.5143 17.9977 59.1077 17.4042 59.8574 16.9794C60.6195 16.5421 61.4753 16.3235 62.4248 16.3235C63.3869 16.3235 64.2364 16.5359 64.9736 16.9607C65.7107 17.3855 66.2854 17.9852 66.6977 18.7598C67.1225 19.5219 67.3349 20.4152 67.3349 21.4397C67.3349 21.5147 67.3286 21.6021 67.3162 21.7021C67.3162 21.802 67.3099 21.8957 67.2974 21.9832H58.8454V20.6901H66.3604L65.6295 21.1398C65.642 20.5027 65.5108 19.9342 65.2359 19.4344C64.9611 18.9347 64.58 18.5474 64.0928 18.2725C63.618 17.9852 63.062 17.8415 62.4248 17.8415C61.8001 17.8415 61.2442 17.9852 60.7569 18.2725C60.2697 18.5474 59.8886 18.9409 59.6137 19.4532C59.3389 19.9529 59.2014 20.5276 59.2014 21.1773V21.4772C59.2014 22.1393 59.3514 22.7328 59.6512 23.2575C59.9636 23.7698 60.3946 24.1696 60.9443 24.4569C61.4941 24.7443 62.125 24.888 62.8371 24.888C63.4243 24.888 63.9553 24.788 64.4301 24.5881C64.9173 24.3882 65.3421 24.0884 65.7045 23.6886L66.6977 24.8505C66.2479 25.3752 65.6857 25.775 65.0111 26.0499C64.3489 26.3248 63.6055 26.4622 62.7809 26.4622Z" fill="#094063"/>
<path d="M44.9292 26.3497V13.2312H50.0454C51.1948 13.2312 52.1756 13.4124 52.9877 13.7747C53.7998 14.137 54.4245 14.6617 54.8618 15.3489C55.299 16.0361 55.5177 16.8544 55.5177 17.8039C55.5177 18.7535 55.299 19.5718 54.8618 20.259C54.4245 20.9336 53.7998 21.4521 52.9877 21.8144C52.1756 22.1767 51.1948 22.3579 50.0454 22.3579H45.9599L46.8033 21.4958V26.3497H44.9292ZM53.6998 26.3497L50.364 21.5895H52.3692L55.7426 26.3497H53.6998ZM46.8033 21.6832L45.9599 20.765H49.9892C51.1886 20.765 52.0944 20.5088 52.7066 19.9966C53.3313 19.4718 53.6436 18.741 53.6436 17.8039C53.6436 16.8669 53.3313 16.1423 52.7066 15.63C52.0944 15.1178 51.1886 14.8616 49.9892 14.8616H45.9599L46.8033 13.9246V21.6832Z" fill="#094063"/>
</svg>
