<svg width="144" height="37" viewBox="0 0 144 37" fill="none" xmlns="http://www.w3.org/2000/svg">
<path d="M51.6738 28.904C52.3212 29.3028 53.0011 29.5023 53.7134 29.5025C54.8789 29.5025 55.8231 29.1251 56.5462 28.3702C57.2693 27.6153 57.6308 26.5367 57.6308 25.1346L57.6429 25.1031C56.395 25.869 54.9588 26.2733 53.4944 26.2709C49.1094 26.2709 45.5547 22.7184 45.5547 18.3364C45.5547 13.9543 49.1094 10.4019 53.4944 10.4019C54.9466 10.3995 56.3713 10.797 57.6123 11.5507L57.6316 11.573V10.4135H62.2937V24.9083C62.2937 26.2024 62.094 27.3941 61.6947 28.4834C61.2954 29.5727 60.7234 30.511 59.9787 31.2982C59.234 32.0853 58.3329 32.6946 57.2753 33.1261C56.2177 33.5576 55.0306 33.7733 53.7139 33.7733C52.5696 33.7733 51.5444 33.6277 50.6384 33.3365C49.7323 33.0452 48.9391 32.6678 48.2586 32.2041L51.6738 28.904ZM53.4946 14.8632C51.5748 14.8632 50.0183 16.4184 50.0183 18.3371C50.0183 20.2557 51.5748 21.811 53.4946 21.811C55.4143 21.811 56.971 20.2555 56.971 18.3371C56.971 16.4186 55.4145 14.8632 53.4946 14.8632Z" fill="#FC553A"/>
<path d="M66.4309 8.93432C66.0501 8.93432 65.6981 8.86302 65.3748 8.72041C64.7405 8.44774 64.2349 7.94243 63.9621 7.3085C63.8194 6.98542 63.7481 6.63368 63.7481 6.25327C63.7474 5.89528 63.8203 5.54096 63.9621 5.21221C64.0957 4.8931 64.2895 4.60267 64.5329 4.35674C64.7755 4.11587 65.061 3.92251 65.3748 3.78667C65.6981 3.64406 66.0501 3.57276 66.4309 3.57276C66.7891 3.57212 67.1436 3.64493 67.4725 3.78667C67.7928 3.91847 68.0838 4.11232 68.3287 4.35705C68.5736 4.60178 68.7676 4.89254 68.8996 5.21256C69.0414 5.54131 69.1142 5.89563 69.1136 6.25363C69.1136 6.63415 69.0423 6.98589 68.8996 7.30885C68.7635 7.62249 68.5699 7.90791 68.3287 8.15034C68.0826 8.39356 67.7919 8.58721 67.4725 8.72077C67.1436 8.86239 66.7891 8.93507 66.4309 8.93432ZM68.6945 26.2253V10.3722H64.0026V26.2253H68.6945Z" fill="#FC553A"/>
<path d="M76.3593 28.904C77.0068 29.3028 77.6867 29.5023 78.3989 29.5025C79.5644 29.5025 80.5087 29.1251 81.2318 28.3702C81.9548 27.6152 82.3164 26.5367 82.3164 25.1346L82.3284 25.1031C81.0807 25.869 79.6444 26.2733 78.1801 26.2709C73.7951 26.2709 70.2402 22.7184 70.2402 18.3364C70.2402 13.9543 73.7951 10.4019 78.1801 10.4019C79.632 10.3996 81.0565 10.797 82.2973 11.5505L82.3164 11.5728V10.4135H86.9785V24.9083C86.9785 26.2024 86.7789 27.3941 86.3797 28.4834C85.9805 29.5727 85.4085 30.511 84.6637 31.2982C83.919 32.0853 83.0179 32.6946 81.9603 33.1261C80.9027 33.5576 79.7156 33.7733 78.3989 33.7733C77.2547 33.7733 76.2295 33.6277 75.3232 33.3364C74.4169 33.0452 73.6237 32.6678 72.9434 32.2041L76.3593 28.904ZM78.1801 14.8632C76.2602 14.8632 74.7039 16.4184 74.7039 18.3371C74.7039 20.2557 76.2602 21.8109 78.1801 21.8109C80.1 21.8109 81.6563 20.2555 81.6563 18.3371C81.6563 16.4186 80.0999 14.8632 78.1801 14.8632Z" fill="#FC553A"/>
<path d="M118.005 8.90912C117.573 8.90912 117.174 8.82826 116.807 8.66655C116.087 8.35715 115.514 7.78399 115.204 7.06496C115.042 6.69836 114.961 6.29932 114.961 5.86784C114.961 5.46182 115.043 5.05999 115.204 4.68717C115.366 4.30972 115.582 3.98623 115.852 3.7167C116.127 3.44335 116.451 3.22384 116.807 3.06948C117.174 2.90777 117.573 2.82691 118.005 2.82691C118.411 2.82619 118.813 2.90875 119.187 3.06948C119.564 3.23132 119.888 3.44706 120.158 3.7167C120.428 3.98634 120.644 4.30983 120.805 4.68717C120.967 5.05993 121.049 5.46177 121.049 5.86784C121.049 6.29955 120.968 6.69859 120.806 7.06496C120.652 7.42068 120.432 7.74438 120.159 8.01933C119.888 8.28933 119.565 8.50507 119.187 8.66655C118.814 8.82737 118.411 8.90993 118.005 8.90912ZM93.2119 10.3982H88.7402V26.3137H93.3666V18.9479C93.3666 17.5241 93.6115 16.3862 94.1014 15.5343C94.5909 14.6826 95.49 14.2564 96.4696 14.2564C97.3001 14.2564 97.9123 14.51 98.3062 15.0172C98.7 15.5244 98.897 16.1876 98.897 17.0069V26.3136H103.688V18.9479C103.688 17.5241 103.954 16.3862 104.486 15.5343C105.019 14.6825 105.806 14.2565 106.849 14.2564C107.573 14.2564 108.121 14.51 108.494 15.0172C108.867 15.5244 109.054 16.1876 109.053 17.0069L109.042 22.3149C109.042 22.3149 109.095 26.3053 113.143 26.3053H120.214V10.3948H115.522V22.3146H113.79L113.844 16.7154C113.844 15.7882 113.727 14.9363 113.493 14.1594C113.258 13.3826 112.913 12.714 112.455 12.1537C111.997 11.5932 111.417 11.1564 110.715 10.8433C110.012 10.5303 109.192 10.3738 108.255 10.3739C106.935 10.3739 105.838 10.6597 104.965 11.2314C104.093 11.803 103.422 12.4662 102.953 13.2211C102.634 12.4662 102.08 11.803 101.292 11.2314C100.505 10.6597 99.5146 10.3739 98.3221 10.3739C97.2362 10.3739 96.294 10.595 95.4955 11.0371C94.697 11.4794 93.9602 12.003 93.1786 12.9479L93.2119 10.3982Z" fill="#FC553A"/>
<path d="M121.822 26.301V2.74219H126.679V26.301H121.822Z" fill="#FC553A"/>
<path d="M140.54 25.2481C139.355 25.9771 137.921 26.3416 136.239 26.3416C135.084 26.3416 134.015 26.1441 133.033 25.7492C132.05 25.3543 131.194 24.8025 130.464 24.0938C129.735 23.3852 129.167 22.5499 128.762 21.5879C128.357 20.626 128.154 19.568 128.154 18.414C128.154 17.3406 128.357 16.323 128.762 15.3614C129.168 14.3997 129.73 13.5593 130.45 12.8403C131.169 12.1217 132.01 11.5496 132.973 11.124C133.935 10.6984 134.984 10.4861 136.118 10.4871C137.354 10.4871 138.443 10.6895 139.386 11.0945C140.328 11.4994 141.113 12.0512 141.741 12.7498C142.369 13.4486 142.845 14.2684 143.17 15.2092C143.494 16.15 143.656 17.1575 143.656 18.2315C143.656 18.3937 143.651 18.5557 143.641 18.7174C143.63 18.8798 143.615 19.0212 143.595 19.142C143.576 19.2727 143.566 19.4046 143.565 19.5368H132.592C132.815 20.5088 133.271 21.2176 133.96 21.663C134.649 22.1084 135.419 22.3311 136.27 22.3312C137.121 22.3312 137.825 22.149 138.382 21.7845L140.54 25.2481ZM139.37 16.4396C139.329 16.1966 139.233 15.9334 139.081 15.6499C138.929 15.3665 138.717 15.1083 138.443 14.8753C138.169 14.6428 137.835 14.4505 137.44 14.2982C137.045 14.1459 136.604 14.07 136.118 14.0705C135.408 14.0705 134.749 14.2729 134.142 14.6779C133.534 15.0828 133.089 15.67 132.805 16.4396H139.37Z" fill="#FC553A"/>
<path d="M18.5125 0C13.4851 0 12.8554 0.0219396 10.8803 0.111467C4.15646 0.419329 0.42032 4.14693 0.111542 10.873C0.0210691 12.8453 0 13.476 0 18.5C0 23.524 0.0210691 24.1549 0.111542 26.1286C0.42032 32.8478 4.15044 36.58 10.8803 36.8885C12.8554 36.9789 13.4851 37 18.5125 37C23.5399 37 24.1712 36.9789 26.1462 36.8885C32.8625 36.5816 36.61 32.8545 36.9135 26.1286C37.0039 24.1549 37.025 23.5256 37.025 18.5C37.025 13.4744 37.0037 12.8453 36.9135 10.873C36.6107 4.16126 32.8767 0.420036 26.1462 0.111467C24.1712 0.0219396 23.5399 0 18.5125 0Z" fill="#FC553A"/>
<path d="M27.2769 9.20828H25.2773C25.955 10.4197 26.3098 11.7849 26.3076 13.1728C26.3076 17.6669 22.6628 21.3085 18.1666 21.3085C13.6703 21.3085 10.0254 17.666 10.0254 13.1728C10.0254 8.67961 13.6702 5.03711 18.1673 5.03711H27.2776L27.2769 9.20828ZM18.1673 9.34717C16.0529 9.34717 14.3389 11.0599 14.3389 13.1728C14.3389 15.2857 16.0522 16.9984 18.1673 16.9984C20.2823 16.9984 21.9955 15.2857 21.9955 13.1728C21.9955 11.0599 20.2807 9.34717 18.1673 9.34717ZM14.3382 32.9026L26.3561 24.8485V19.5899L14.3382 27.6439V32.9026Z" fill="white"/>
</svg>
